{
    "asset" : {
        "generator" : "Khronos glTF Blender I/O v1.5.17",
        "version" : "2.0"
    },
    "scene" : 0,
    "scenes" : [
        {
            "name" : "Scene",
            "nodes" : [
                0
            ]
        }
    ],
    "nodes" : [
        {
            "mesh" : 0,
            "name" : "\ud050\ube0c",
            "translation" : [
                1.4123592376708984,
                0.4081077575683594,
                6.392568588256836
            ]
        }
    ],
    "materials" : [
        {
            "doubleSided" : true,
            "name" : "\ub9e4\ud14c\ub9ac\uc5bc.001",
            "pbrMetallicRoughness" : {
                "baseColorTexture" : {
                    "index" : 0
                },
                "metallicFactor" : 0,
                "roughnessFactor" : 0.5
            }
        }
    ],
    "meshes" : [
        {
            "name" : "\ud050\ube0c.002",
            "primitives" : [
                {
                    "attributes" : {
                        "POSITION" : 0,
                        "NORMAL" : 1,
                        "TEXCOORD_0" : 2
                    },
                    "indices" : 3,
                    "material" : 0
                }
            ]
        }
    ],
    "textures" : [
        {
            "sampler" : 0,
            "source" : 0
        }
    ],
    "images" : [
        {
            "bufferView" : 4,
            "mimeType" : "image/jpeg",
            "name" : "srk_15373_4_360"
        }
    ],
    "accessors" : [
        {
            "bufferView" : 0,
            "componentType" : 5126,
            "count" : 120,
            "max" : [
                27.578588485717773,
                6.043496131896973,
                12.342305183410645
            ],
            "min" : [
                -19.064220428466797,
                -55.88473129272461,
                -20.76000213623047
            ],
            "type" : "VEC3"
        },
        {
            "bufferView" : 1,
            "componentType" : 5126,
            "count" : 120,
            "type" : "VEC3"
        },
        {
            "bufferView" : 2,
            "componentType" : 5126,
            "count" : 120,
            "type" : "VEC2"
        },
        {
            "bufferView" : 3,
            "componentType" : 5123,
            "count" : 180,
            "type" : "SCALAR"
        }
    ],
    "bufferViews" : [
        {
            "buffer" : 0,
            "byteLength" : 1440,
            "byteOffset" : 0
        },
        {
            "buffer" : 0,
            "byteLength" : 1440,
            "byteOffset" : 1440
        },
        {
            "buffer" : 0,
            "byteLength" : 960,
            "byteOffset" : 2880
        },
        {
            "buffer" : 0,
            "byteLength" : 360,
            "byteOffset" : 3840
        },
        {
            "buffer" : 0,
            "byteLength" : 90290,
            "byteOffset" : 4200
        }
    ],
    "samplers" : [
        {
            "magFilter" : 9729,
            "minFilter" : 9987
        }
    ],
    "buffers" : [
        {
            "byteLength" : 94492,
            "uri" : "data:application/octet-stream;base64,"
        }
    ]
}
