{
    "asset" : {
        "generator" : "Khronos glTF Blender I/O v1.5.17",
        "version" : "2.0"
    },
    "scene" : 0,
    "scenes" : [
        {
            "name" : "Scene",
            "nodes" : [
                0,
                1,
                2,
                3,
                4,
                5,
                6,
                7,
                8
            ]
        }
    ],
    "nodes" : [
        {
            "mesh" : 0,
            "name" : "\ud050\ube0c.005",
            "rotation" : [
                1,
                0,
                0,
                7.549790126404332e-08
            ],
            "scale" : [
                0.8999999761581421,
                1.7599999904632568,
                0.8999999761581421
            ],
            "translation" : [
                20.7537899017334,
                13.371843338012695,
                -13.480810165405273
            ]
        },
        {
            "mesh" : 1,
            "name" : "\ud050\ube0c.006",
            "rotation" : [
                0.5000000596046448,
                -0.4999999701976776,
                -0.4999999403953552,
                0.5000000596046448
            ],
            "scale" : [
                1,
                10,
                1
            ],
            "translation" : [
                20.603139877319336,
                13.232368469238281,
                -13.20462417602539
            ]
        },
        {
            "mesh" : 2,
            "name" : "\uad6c\uccb4",
            "scale" : [
                0.5,
                0.5,
                0.5
            ],
            "translation" : [
                20.223215103149414,
                13.397880554199219,
                0.5103376507759094
            ]
        },
        {
            "mesh" : 3,
            "name" : "\uc2e4\ub9b0\ub354",
            "rotation" : [
                0.7071068286895752,
                0,
                0,
                0.7071068286895752
            ],
            "scale" : [
                0.30000001192092896,
                0.15000000596046448,
                0.30000001192092896
            ],
            "translation" : [
                20.200557708740234,
                13.3845796585083,
                0.045576296746730804
            ]
        },
        {
            "mesh" : 4,
            "name" : "\ud050\ube0c",
            "scale" : [
                1,
                17,
                1
            ],
            "translation" : [
                6.03887414932251,
                0,
                0
            ]
        },
        {
            "mesh" : 5,
            "name" : "\ud050\ube0c.001",
            "scale" : [
                1,
                17,
                1
            ],
            "translation" : [
                6.10909366607666,
                0,
                -27
            ]
        },
        {
            "mesh" : 6,
            "name" : "\ud050\ube0c.002",
            "scale" : [
                1,
                17,
                1
            ],
            "translation" : [
                35.470680236816406,
                0,
                0
            ]
        },
        {
            "mesh" : 7,
            "name" : "\ud050\ube0c.003",
            "scale" : [
                1,
                17,
                1
            ],
            "translation" : [
                35.470680236816406,
                0,
                -27
            ]
        },
        {
            "mesh" : 8,
            "name" : "\ud050\ube0c.004",
            "rotation" : [
                -1,
                0,
                0,
                -4.371138828673793e-08
            ],
            "scale" : [
                0.9299999475479126,
                0.6800000071525574,
                1.1200000047683716
            ],
            "translation" : [
                20.774368286132812,
                18.019662857055664,
                -13.480121612548828
            ]
        }
    ],
    "materials" : [
        {
            "doubleSided" : true,
            "name" : "wood",
            "pbrMetallicRoughness" : {
                "baseColorTexture" : {
                    "index" : 0
                },
                "metallicFactor" : 0,
                "roughnessFactor" : 0.5
            }
        },
        {
            "doubleSided" : true,
            "name" : "wood.001",
            "pbrMetallicRoughness" : {
                "baseColorTexture" : {
                    "index" : 1
                },
                "metallicFactor" : 0,
                "roughnessFactor" : 0.5
            }
        },
        {
            "doubleSided" : true,
            "name" : "handle",
            "pbrMetallicRoughness" : {
                "baseColorFactor" : [
                    0.30319738388061523,
                    0.10472624748945236,
                    0.006203659810125828,
                    1
                ],
                "metallicFactor" : 0,
                "roughnessFactor" : 0.5
            }
        }
    ],
    "meshes" : [
        {
            "name" : "\ud050\ube0c.007",
            "primitives" : [
                {
                    "attributes" : {
                        "POSITION" : 0,
                        "NORMAL" : 1,
                        "TEXCOORD_0" : 2
                    },
                    "indices" : 3,
                    "material" : 0
                }
            ]
        },
        {
            "name" : "\ud050\ube0c.008",
            "primitives" : [
                {
                    "attributes" : {
                        "POSITION" : 4,
                        "NORMAL" : 5,
                        "TEXCOORD_0" : 6
                    },
                    "indices" : 3,
                    "material" : 1
                }
            ]
        },
        {
            "name" : "\uad6c\uccb4",
            "primitives" : [
                {
                    "attributes" : {
                        "POSITION" : 7,
                        "NORMAL" : 8,
                        "TEXCOORD_0" : 9
                    },
                    "indices" : 10,
                    "material" : 2
                }
            ]
        },
        {
            "name" : "\uc2e4\ub9b0\ub354",
            "primitives" : [
                {
                    "attributes" : {
                        "POSITION" : 11,
                        "NORMAL" : 12,
                        "TEXCOORD_0" : 13
                    },
                    "indices" : 14,
                    "material" : 2
                }
            ]
        },
        {
            "name" : "\ud050\ube0c",
            "primitives" : [
                {
                    "attributes" : {
                        "POSITION" : 15,
                        "NORMAL" : 16,
                        "TEXCOORD_0" : 17
                    },
                    "indices" : 3,
                    "material" : 0
                }
            ]
        },
        {
            "name" : "\ud050\ube0c.001",
            "primitives" : [
                {
                    "attributes" : {
                        "POSITION" : 18,
                        "NORMAL" : 19,
                        "TEXCOORD_0" : 20
                    },
                    "indices" : 3,
                    "material" : 0
                }
            ]
        },
        {
            "name" : "\ud050\ube0c.002",
            "primitives" : [
                {
                    "attributes" : {
                        "POSITION" : 21,
                        "NORMAL" : 22,
                        "TEXCOORD_0" : 23
                    },
                    "indices" : 3,
                    "material" : 0
                }
            ]
        },
        {
            "name" : "\ud050\ube0c.003",
            "primitives" : [
                {
                    "attributes" : {
                        "POSITION" : 24,
                        "NORMAL" : 25,
                        "TEXCOORD_0" : 26
                    },
                    "indices" : 3,
                    "material" : 0
                }
            ]
        },
        {
            "name" : "\ud050\ube0c.006",
            "primitives" : [
                {
                    "attributes" : {
                        "POSITION" : 27,
                        "NORMAL" : 28,
                        "TEXCOORD_0" : 29
                    },
                    "indices" : 3,
                    "material" : 0
                }
            ]
        }
    ],
    "textures" : [
        {
            "sampler" : 0,
            "source" : 0
        },
        {
            "sampler" : 0,
            "source" : 1
        }
    ],
    "images" : [
        {
            "bufferView" : 4,
            "mimeType" : "image/jpeg",
            "name" : "Seamless-Oak-Texture"
        },
        {
            "bufferView" : 8,
            "mimeType" : "image/jpeg",
            "name" : "pngtree-plane-wood-texture-seamless-background-image_387389"
        }
    ],
    "accessors" : [
        {
            "bufferView" : 0,
            "componentType" : 5126,
            "count" : 24,
            "max" : [
                16.427448272705078,
                2.148167133331299,
                14.517995834350586
            ],
            "min" : [
                -16.427448272705078,
                -2.148167133331299,
                -14.517995834350586
            ],
            "type" : "VEC3"
        },
        {
            "bufferView" : 1,
            "componentType" : 5126,
            "count" : 24,
            "type" : "VEC3"
        },
        {
            "bufferView" : 2,
            "componentType" : 5126,
            "count" : 24,
            "type" : "VEC2"
        },
        {
            "bufferView" : 3,
            "componentType" : 5123,
            "count" : 36,
            "type" : "SCALAR"
        },
        {
            "bufferView" : 5,
            "componentType" : 5126,
            "count" : 24,
            "max" : [
                2.6576123237609863,
                1.3102792501449585,
                11.020557403564453
            ],
            "min" : [
                -2.6576123237609863,
                -1.3102792501449585,
                -11.020557403564453
            ],
            "type" : "VEC3"
        },
        {
            "bufferView" : 6,
            "componentType" : 5126,
            "count" : 24,
            "type" : "VEC3"
        },
        {
            "bufferView" : 7,
            "componentType" : 5126,
            "count" : 24,
            "type" : "VEC2"
        },
        {
            "bufferView" : 9,
            "componentType" : 5126,
            "count" : 1984,
            "max" : [
                1.000000238418579,
                1,
                1.0000003576278687
            ],
            "min" : [
                -0.9999998211860657,
                -1,
                -1
            ],
            "type" : "VEC3"
        },
        {
            "bufferView" : 10,
            "componentType" : 5126,
            "count" : 1984,
            "type" : "VEC3"
        },
        {
            "bufferView" : 11,
            "componentType" : 5126,
            "count" : 1984,
            "type" : "VEC2"
        },
        {
            "bufferView" : 12,
            "componentType" : 5123,
            "count" : 2880,
            "type" : "SCALAR"
        },
        {
            "bufferView" : 13,
            "componentType" : 5126,
            "count" : 192,
            "max" : [
                1,
                1,
                1
            ],
            "min" : [
                -1,
                -1,
                -1
            ],
            "type" : "VEC3"
        },
        {
            "bufferView" : 14,
            "componentType" : 5126,
            "count" : 192,
            "type" : "VEC3"
        },
        {
            "bufferView" : 15,
            "componentType" : 5126,
            "count" : 192,
            "type" : "VEC2"
        },
        {
            "bufferView" : 16,
            "componentType" : 5123,
            "count" : 372,
            "type" : "SCALAR"
        },
        {
            "bufferView" : 17,
            "componentType" : 5126,
            "count" : 24,
            "max" : [
                1,
                1,
                1
            ],
            "min" : [
                -1,
                -1,
                -1
            ],
            "type" : "VEC3"
        },
        {
            "bufferView" : 18,
            "componentType" : 5126,
            "count" : 24,
            "type" : "VEC3"
        },
        {
            "bufferView" : 19,
            "componentType" : 5126,
            "count" : 24,
            "type" : "VEC2"
        },
        {
            "bufferView" : 20,
            "componentType" : 5126,
            "count" : 24,
            "max" : [
                1,
                1,
                1
            ],
            "min" : [
                -1,
                -1,
                -1
            ],
            "type" : "VEC3"
        },
        {
            "bufferView" : 21,
            "componentType" : 5126,
            "count" : 24,
            "type" : "VEC3"
        },
        {
            "bufferView" : 22,
            "componentType" : 5126,
            "count" : 24,
            "type" : "VEC2"
        },
        {
            "bufferView" : 23,
            "componentType" : 5126,
            "count" : 24,
            "max" : [
                1,
                1,
                1
            ],
            "min" : [
                -1,
                -1,
                -1
            ],
            "type" : "VEC3"
        },
        {
            "bufferView" : 24,
            "componentType" : 5126,
            "count" : 24,
            "type" : "VEC3"
        },
        {
            "bufferView" : 25,
            "componentType" : 5126,
            "count" : 24,
            "type" : "VEC2"
        },
        {
            "bufferView" : 26,
            "componentType" : 5126,
            "count" : 24,
            "max" : [
                1,
                1,
                1
            ],
            "min" : [
                -1,
                -1,
                -1
            ],
            "type" : "VEC3"
        },
        {
            "bufferView" : 27,
            "componentType" : 5126,
            "count" : 24,
            "type" : "VEC3"
        },
        {
            "bufferView" : 28,
            "componentType" : 5126,
            "count" : 24,
            "type" : "VEC2"
        },
        {
            "bufferView" : 29,
            "componentType" : 5126,
            "count" : 24,
            "max" : [
                18.606334686279297,
                1.8172073364257812,
                14.494613647460938
            ],
            "min" : [
                -18.606334686279297,
                -1.8172073364257812,
                -14.494613647460938
            ],
            "type" : "VEC3"
        },
        {
            "bufferView" : 30,
            "componentType" : 5126,
            "count" : 24,
            "type" : "VEC3"
        },
        {
            "bufferView" : 31,
            "componentType" : 5126,
            "count" : 24,
            "type" : "VEC2"
        }
    ],
    "bufferViews" : [
        {
            "buffer" : 0,
            "byteLength" : 288,
            "byteOffset" : 0
        },
        {
            "buffer" : 0,
            "byteLength" : 288,
            "byteOffset" : 288
        },
        {
            "buffer" : 0,
            "byteLength" : 192,
            "byteOffset" : 576
        },
        {
            "buffer" : 0,
            "byteLength" : 72,
            "byteOffset" : 768
        },
        {
            "buffer" : 0,
            "byteLength" : 456048,
            "byteOffset" : 840
        },
        {
            "buffer" : 0,
            "byteLength" : 288,
            "byteOffset" : 456888
        },
        {
            "buffer" : 0,
            "byteLength" : 288,
            "byteOffset" : 457176
        },
        {
            "buffer" : 0,
            "byteLength" : 192,
            "byteOffset" : 457464
        },
        {
            "buffer" : 0,
            "byteLength" : 258108,
            "byteOffset" : 457656
        },
        {
            "buffer" : 0,
            "byteLength" : 23808,
            "byteOffset" : 715764
        },
        {
            "buffer" : 0,
            "byteLength" : 23808,
            "byteOffset" : 739572
        },
        {
            "buffer" : 0,
            "byteLength" : 15872,
            "byteOffset" : 763380
        },
        {
            "buffer" : 0,
            "byteLength" : 5760,
            "byteOffset" : 779252
        },
        {
            "buffer" : 0,
            "byteLength" : 2304,
            "byteOffset" : 785012
        },
        {
            "buffer" : 0,
            "byteLength" : 2304,
            "byteOffset" : 787316
        },
        {
            "buffer" : 0,
            "byteLength" : 1536,
            "byteOffset" : 789620
        },
        {
            "buffer" : 0,
            "byteLength" : 744,
            "byteOffset" : 791156
        },
        {
            "buffer" : 0,
            "byteLength" : 288,
            "byteOffset" : 791900
        },
        {
            "buffer" : 0,
            "byteLength" : 288,
            "byteOffset" : 792188
        },
        {
            "buffer" : 0,
            "byteLength" : 192,
            "byteOffset" : 792476
        },
        {
            "buffer" : 0,
            "byteLength" : 288,
            "byteOffset" : 792668
        },
        {
            "buffer" : 0,
            "byteLength" : 288,
            "byteOffset" : 792956
        },
        {
            "buffer" : 0,
            "byteLength" : 192,
            "byteOffset" : 793244
        },
        {
            "buffer" : 0,
            "byteLength" : 288,
            "byteOffset" : 793436
        },
        {
            "buffer" : 0,
            "byteLength" : 288,
            "byteOffset" : 793724
        },
        {
            "buffer" : 0,
            "byteLength" : 192,
            "byteOffset" : 794012
        },
        {
            "buffer" : 0,
            "byteLength" : 288,
            "byteOffset" : 794204
        },
        {
            "buffer" : 0,
            "byteLength" : 288,
            "byteOffset" : 794492
        },
        {
            "buffer" : 0,
            "byteLength" : 192,
            "byteOffset" : 794780
        },
        {
            "buffer" : 0,
            "byteLength" : 288,
            "byteOffset" : 794972
        },
        {
            "buffer" : 0,
            "byteLength" : 288,
            "byteOffset" : 795260
        },
        {
            "buffer" : 0,
            "byteLength" : 192,
            "byteOffset" : 795548
        }
    ],
    "samplers" : [
        {
            "magFilter" : 9729,
            "minFilter" : 9987
        }
    ],
    "buffers" : [
        {
            "byteLength" : 795740,
            "uri" : "data:application/octet-stream;base64,"
        }
    ]
}
