{
    "asset" : {
        "generator" : "Khronos glTF Blender I/O v1.5.17",
        "version" : "2.0"
    },
    "scene" : 0,
    "scenes" : [
        {
            "name" : "Scene",
            "nodes" : [
                0,
                1,
                2,
                3,
                4,
                5,
                6
            ]
        }
    ],
    "nodes" : [
        {
            "mesh" : 0,
            "name" : "Cube",
            "scale" : [
                0.5,
                20,
                10
            ]
        },
        {
            "mesh" : 1,
            "name" : "\ud050\ube0c.001",
            "rotation" : [
                -0.7071068286895752,
                0.7071068286895752,
                0,
                5.85839870836935e-07
            ],
            "scale" : [
                1.7799999713897705,
                1,
                1
            ],
            "translation" : [
                0.7175400257110596,
                -0.0735960453748703,
                8.862275123596191
            ]
        },
        {
            "mesh" : 2,
            "name" : "\ud050\ube0c.002",
            "rotation" : [
                0.5,
                0.5,
                -0.5,
                0.4999999701976776
            ],
            "translation" : [
                0.7175400257110596,
                18.85803985595703,
                0.002892192918807268
            ]
        },
        {
            "mesh" : 3,
            "name" : "\ud050\ube0c.003",
            "rotation" : [
                0.5,
                0.5,
                -0.5,
                0.4999999701976776
            ],
            "scale" : [
                1,
                1,
                0.949999988079071
            ],
            "translation" : [
                0.7175400257110596,
                -18.920106887817383,
                0.002892192918807268
            ]
        },
        {
            "mesh" : 4,
            "name" : "\ud050\ube0c.004",
            "rotation" : [
                -0.7071068286895752,
                0.7071068286895752,
                0,
                5.85839870836935e-07
            ],
            "scale" : [
                1.7799999713897705,
                1,
                1
            ],
            "translation" : [
                0.7175400257110596,
                -0.0735960453748703,
                -8.861798286437988
            ]
        },
        {
            "mesh" : 5,
            "name" : "\ud050\ube0c.005",
            "rotation" : [
                0.5,
                0.5,
                -0.5,
                0.4999999701976776
            ],
            "scale" : [
                0.7749999761581421,
                1,
                1
            ],
            "translation" : [
                0.7175400257110596,
                6.191652774810791,
                0.002892192918807268
            ]
        },
        {
            "mesh" : 6,
            "name" : "\ud050\ube0c.006",
            "rotation" : [
                0.5,
                0.5,
                -0.5,
                0.4999999701976776
            ],
            "scale" : [
                0.7749999761581421,
                1,
                1
            ],
            "translation" : [
                0.7175400257110596,
                -1.3289400339126587,
                0.002892192918807268
            ]
        }
    ],
    "materials" : [
        {
            "doubleSided" : true,
            "name" : "\ub9e4\ud14c\ub9ac\uc5bc",
            "pbrMetallicRoughness" : {
                "baseColorTexture" : {
                    "index" : 0
                },
                "metallicFactor" : 0,
                "roughnessFactor" : 0.5
            }
        }
    ],
    "meshes" : [
        {
            "name" : "Cube",
            "primitives" : [
                {
                    "attributes" : {
                        "POSITION" : 0,
                        "NORMAL" : 1,
                        "TEXCOORD_0" : 2
                    },
                    "indices" : 3,
                    "material" : 0
                }
            ]
        },
        {
            "name" : "\ud050\ube0c.001",
            "primitives" : [
                {
                    "attributes" : {
                        "POSITION" : 4,
                        "NORMAL" : 5,
                        "TEXCOORD_0" : 6
                    },
                    "indices" : 7,
                    "material" : 0
                }
            ]
        },
        {
            "name" : "\ud050\ube0c.002",
            "primitives" : [
                {
                    "attributes" : {
                        "POSITION" : 8,
                        "NORMAL" : 9,
                        "TEXCOORD_0" : 10
                    },
                    "indices" : 7,
                    "material" : 0
                }
            ]
        },
        {
            "name" : "\ud050\ube0c.003",
            "primitives" : [
                {
                    "attributes" : {
                        "POSITION" : 11,
                        "NORMAL" : 12,
                        "TEXCOORD_0" : 13
                    },
                    "indices" : 7,
                    "material" : 0
                }
            ]
        },
        {
            "name" : "\ud050\ube0c.004",
            "primitives" : [
                {
                    "attributes" : {
                        "POSITION" : 14,
                        "NORMAL" : 15,
                        "TEXCOORD_0" : 16
                    },
                    "indices" : 7,
                    "material" : 0
                }
            ]
        },
        {
            "name" : "\ud050\ube0c.005",
            "primitives" : [
                {
                    "attributes" : {
                        "POSITION" : 17,
                        "NORMAL" : 18,
                        "TEXCOORD_0" : 19
                    },
                    "indices" : 7,
                    "material" : 0
                }
            ]
        },
        {
            "name" : "\ud050\ube0c.006",
            "primitives" : [
                {
                    "attributes" : {
                        "POSITION" : 20,
                        "NORMAL" : 21,
                        "TEXCOORD_0" : 22
                    },
                    "indices" : 7,
                    "material" : 0
                }
            ]
        }
    ],
    "textures" : [
        {
            "sampler" : 0,
            "source" : 0
        }
    ],
    "images" : [
        {
            "bufferView" : 4,
            "mimeType" : "image/png",
            "name" : "door"
        }
    ],
    "accessors" : [
        {
            "bufferView" : 0,
            "componentType" : 5126,
            "count" : 24,
            "max" : [
                1,
                1,
                1
            ],
            "min" : [
                -1,
                -1,
                -1
            ],
            "type" : "VEC3"
        },
        {
            "bufferView" : 1,
            "componentType" : 5126,
            "count" : 24,
            "type" : "VEC3"
        },
        {
            "bufferView" : 2,
            "componentType" : 5126,
            "count" : 24,
            "type" : "VEC2"
        },
        {
            "bufferView" : 3,
            "componentType" : 5123,
            "count" : 36,
            "type" : "SCALAR"
        },
        {
            "bufferView" : 5,
            "componentType" : 5126,
            "count" : 24,
            "max" : [
                9.995811462402344,
                0.21651840209960938,
                1.1363496780395508
            ],
            "min" : [
                -9.995811462402344,
                -0.21651840209960938,
                -1.1363496780395508
            ],
            "type" : "VEC3"
        },
        {
            "bufferView" : 6,
            "componentType" : 5126,
            "count" : 24,
            "type" : "VEC3"
        },
        {
            "bufferView" : 7,
            "componentType" : 5126,
            "count" : 24,
            "type" : "VEC2"
        },
        {
            "bufferView" : 8,
            "componentType" : 5123,
            "count" : 36,
            "type" : "SCALAR"
        },
        {
            "bufferView" : 9,
            "componentType" : 5126,
            "count" : 24,
            "max" : [
                9.995811462402344,
                0.21651840209960938,
                1.1363496780395508
            ],
            "min" : [
                -9.995811462402344,
                -0.21651840209960938,
                -1.1363496780395508
            ],
            "type" : "VEC3"
        },
        {
            "bufferView" : 10,
            "componentType" : 5126,
            "count" : 24,
            "type" : "VEC3"
        },
        {
            "bufferView" : 11,
            "componentType" : 5126,
            "count" : 24,
            "type" : "VEC2"
        },
        {
            "bufferView" : 12,
            "componentType" : 5126,
            "count" : 24,
            "max" : [
                9.995811462402344,
                0.21651840209960938,
                1.1363496780395508
            ],
            "min" : [
                -9.995811462402344,
                -0.21651840209960938,
                -1.1363496780395508
            ],
            "type" : "VEC3"
        },
        {
            "bufferView" : 13,
            "componentType" : 5126,
            "count" : 24,
            "type" : "VEC3"
        },
        {
            "bufferView" : 14,
            "componentType" : 5126,
            "count" : 24,
            "type" : "VEC2"
        },
        {
            "bufferView" : 15,
            "componentType" : 5126,
            "count" : 24,
            "max" : [
                9.995811462402344,
                0.21651840209960938,
                1.1363496780395508
            ],
            "min" : [
                -9.995811462402344,
                -0.21651840209960938,
                -1.1363496780395508
            ],
            "type" : "VEC3"
        },
        {
            "bufferView" : 16,
            "componentType" : 5126,
            "count" : 24,
            "type" : "VEC3"
        },
        {
            "bufferView" : 17,
            "componentType" : 5126,
            "count" : 24,
            "type" : "VEC2"
        },
        {
            "bufferView" : 18,
            "componentType" : 5126,
            "count" : 24,
            "max" : [
                9.995811462402344,
                0.21651840209960938,
                1.1363496780395508
            ],
            "min" : [
                -9.995811462402344,
                -0.21651840209960938,
                -1.1363496780395508
            ],
            "type" : "VEC3"
        },
        {
            "bufferView" : 19,
            "componentType" : 5126,
            "count" : 24,
            "type" : "VEC3"
        },
        {
            "bufferView" : 20,
            "componentType" : 5126,
            "count" : 24,
            "type" : "VEC2"
        },
        {
            "bufferView" : 21,
            "componentType" : 5126,
            "count" : 24,
            "max" : [
                9.995811462402344,
                0.21651840209960938,
                1.1363496780395508
            ],
            "min" : [
                -9.995811462402344,
                -0.21651840209960938,
                -1.1363496780395508
            ],
            "type" : "VEC3"
        },
        {
            "bufferView" : 22,
            "componentType" : 5126,
            "count" : 24,
            "type" : "VEC3"
        },
        {
            "bufferView" : 23,
            "componentType" : 5126,
            "count" : 24,
            "type" : "VEC2"
        }
    ],
    "bufferViews" : [
        {
            "buffer" : 0,
            "byteLength" : 288,
            "byteOffset" : 0
        },
        {
            "buffer" : 0,
            "byteLength" : 288,
            "byteOffset" : 288
        },
        {
            "buffer" : 0,
            "byteLength" : 192,
            "byteOffset" : 576
        },
        {
            "buffer" : 0,
            "byteLength" : 72,
            "byteOffset" : 768
        },
        {
            "buffer" : 0,
            "byteLength" : 512321,
            "byteOffset" : 840
        },
        {
            "buffer" : 0,
            "byteLength" : 288,
            "byteOffset" : 513164
        },
        {
            "buffer" : 0,
            "byteLength" : 288,
            "byteOffset" : 513452
        },
        {
            "buffer" : 0,
            "byteLength" : 192,
            "byteOffset" : 513740
        },
        {
            "buffer" : 0,
            "byteLength" : 72,
            "byteOffset" : 513932
        },
        {
            "buffer" : 0,
            "byteLength" : 288,
            "byteOffset" : 514004
        },
        {
            "buffer" : 0,
            "byteLength" : 288,
            "byteOffset" : 514292
        },
        {
            "buffer" : 0,
            "byteLength" : 192,
            "byteOffset" : 514580
        },
        {
            "buffer" : 0,
            "byteLength" : 288,
            "byteOffset" : 514772
        },
        {
            "buffer" : 0,
            "byteLength" : 288,
            "byteOffset" : 515060
        },
        {
            "buffer" : 0,
            "byteLength" : 192,
            "byteOffset" : 515348
        },
        {
            "buffer" : 0,
            "byteLength" : 288,
            "byteOffset" : 515540
        },
        {
            "buffer" : 0,
            "byteLength" : 288,
            "byteOffset" : 515828
        },
        {
            "buffer" : 0,
            "byteLength" : 192,
            "byteOffset" : 516116
        },
        {
            "buffer" : 0,
            "byteLength" : 288,
            "byteOffset" : 516308
        },
        {
            "buffer" : 0,
            "byteLength" : 288,
            "byteOffset" : 516596
        },
        {
            "buffer" : 0,
            "byteLength" : 192,
            "byteOffset" : 516884
        },
        {
            "buffer" : 0,
            "byteLength" : 288,
            "byteOffset" : 517076
        },
        {
            "buffer" : 0,
            "byteLength" : 288,
            "byteOffset" : 517364
        },
        {
            "buffer" : 0,
            "byteLength" : 192,
            "byteOffset" : 517652
        }
    ],
    "samplers" : [
        {
            "magFilter" : 9729,
            "minFilter" : 9987
        }
    ],
    "buffers" : [
        {
            "byteLength" : 517844,
            "uri" : "data:application/octet-stream;base64,"
        }
    ]
}
