{
    "asset" : {
        "generator" : "Khronos glTF Blender I/O v1.5.17",
        "version" : "2.0"
    },
    "scene" : 0,
    "scenes" : [
        {
            "name" : "Scene",
            "nodes" : [
                0,
                1,
                2,
                3
            ]
        }
    ],
    "nodes" : [
        {
            "mesh" : 0,
            "name" : "Cube",
            "scale" : [
                0.15000000596046448,
                1.5,
                2.5
            ]
        },
        {
            "mesh" : 1,
            "name" : "\ud050\ube0c",
            "rotation" : [
                -0.5,
                0.5,
                0.5,
                0.4999999701976776
            ],
            "scale" : [
                1,
                2.4175431728363037,
                1
            ],
            "translation" : [
                0.02489585429430008,
                -0.003937661647796631,
                -0.007875800132751465
            ]
        },
        {
            "name" : "\ubca0\uc9c0\uc5b4 \uc6d0\ud615",
            "scale" : [
                0.04857391119003296,
                0.04857391119003296,
                0.04857391119003296
            ]
        },
        {
            "mesh" : 2,
            "name" : "\ubca0\uc9c0\uc5b4\ucee4\ube0c",
            "rotation" : [
                0,
                -0.7029632329940796,
                0,
                0.711226224899292
            ],
            "translation" : [
                0,
                2.3304219245910645,
                0
            ]
        }
    ],
    "materials" : [
        {
            "doubleSided" : true,
            "name" : "Material",
            "pbrMetallicRoughness" : {
                "baseColorTexture" : {
                    "index" : 0
                },
                "metallicFactor" : 0,
                "roughnessFactor" : 0.4000000059604645
            }
        },
        {
            "doubleSided" : true,
            "name" : "\ub9e4\ud14c\ub9ac\uc5bc",
            "pbrMetallicRoughness" : {
                "baseColorTexture" : {
                    "index" : 1
                },
                "metallicFactor" : 0,
                "roughnessFactor" : 0.5
            }
        },
        {
            "doubleSided" : true,
            "name" : "\ub9e4\ud14c\ub9ac\uc5bc.001",
            "pbrMetallicRoughness" : {
                "baseColorTexture" : {
                    "index" : 2
                },
                "metallicFactor" : 0,
                "roughnessFactor" : 0.5
            }
        }
    ],
    "meshes" : [
        {
            "name" : "Cube",
            "primitives" : [
                {
                    "attributes" : {
                        "POSITION" : 0,
                        "NORMAL" : 1,
                        "TEXCOORD_0" : 2,
                        "TEXCOORD_1" : 3
                    },
                    "indices" : 4,
                    "material" : 0
                }
            ]
        },
        {
            "name" : "\ud050\ube0c",
            "primitives" : [
                {
                    "attributes" : {
                        "POSITION" : 5,
                        "NORMAL" : 6,
                        "TEXCOORD_0" : 7
                    },
                    "indices" : 8,
                    "material" : 1
                }
            ]
        },
        {
            "name" : "\ubca0\uc9c0\uc5b4\ucee4\ube0c",
            "primitives" : [
                {
                    "attributes" : {
                        "POSITION" : 9,
                        "NORMAL" : 10,
                        "TEXCOORD_0" : 11
                    },
                    "indices" : 12,
                    "material" : 2
                }
            ]
        }
    ],
    "textures" : [
        {
            "sampler" : 0,
            "source" : 0
        },
        {
            "sampler" : 0,
            "source" : 1
        },
        {
            "sampler" : 0,
            "source" : 2
        }
    ],
    "images" : [
        {
            "bufferView" : 5,
            "mimeType" : "image/jpeg",
            "name" : "11929904-\uac80\uc740-\ub098\ubb34-\ud751\ub2e8-\ud14d\uc2a4\ucc98"
        },
        {
            "bufferView" : 10,
            "mimeType" : "image/png",
            "name" : "frame4"
        },
        {
            "bufferView" : 15,
            "mimeType" : "image/jpeg",
            "name" : "13206168-\uac80\uc740-\uc0c9-\ud50c\ub77c\uc2a4\ud2f1-\uadfc\uc811-\ud14d\uc2a4\ucc98-\uc624\ub798-\uae01\ud78c"
        }
    ],
    "accessors" : [
        {
            "bufferView" : 0,
            "componentType" : 5126,
            "count" : 48,
            "max" : [
                1,
                1,
                1
            ],
            "min" : [
                -1,
                -1,
                -1
            ],
            "type" : "VEC3"
        },
        {
            "bufferView" : 1,
            "componentType" : 5126,
            "count" : 48,
            "type" : "VEC3"
        },
        {
            "bufferView" : 2,
            "componentType" : 5126,
            "count" : 48,
            "type" : "VEC2"
        },
        {
            "bufferView" : 3,
            "componentType" : 5126,
            "count" : 48,
            "type" : "VEC2"
        },
        {
            "bufferView" : 4,
            "componentType" : 5123,
            "count" : 84,
            "type" : "SCALAR"
        },
        {
            "bufferView" : 6,
            "componentType" : 5126,
            "count" : 24,
            "max" : [
                2.299668788909912,
                0.030628785490989685,
                1.311283826828003
            ],
            "min" : [
                -2.299668788909912,
                -0.030628785490989685,
                -1.311283826828003
            ],
            "type" : "VEC3"
        },
        {
            "bufferView" : 7,
            "componentType" : 5126,
            "count" : 24,
            "type" : "VEC3"
        },
        {
            "bufferView" : 8,
            "componentType" : 5126,
            "count" : 24,
            "type" : "VEC2"
        },
        {
            "bufferView" : 9,
            "componentType" : 5123,
            "count" : 36,
            "type" : "SCALAR"
        },
        {
            "bufferView" : 11,
            "componentType" : 5126,
            "count" : 637,
            "max" : [
                1.7401140928268433,
                -0.26481205224990845,
                0.05670391768217087
            ],
            "min" : [
                -1.751917839050293,
                -0.9373881220817566,
                -0.06842605769634247
            ],
            "type" : "VEC3"
        },
        {
            "bufferView" : 12,
            "componentType" : 5126,
            "count" : 637,
            "type" : "VEC3"
        },
        {
            "bufferView" : 13,
            "componentType" : 5126,
            "count" : 637,
            "type" : "VEC2"
        },
        {
            "bufferView" : 14,
            "componentType" : 5123,
            "count" : 3456,
            "type" : "SCALAR"
        }
    ],
    "bufferViews" : [
        {
            "buffer" : 0,
            "byteLength" : 576,
            "byteOffset" : 0
        },
        {
            "buffer" : 0,
            "byteLength" : 576,
            "byteOffset" : 576
        },
        {
            "buffer" : 0,
            "byteLength" : 384,
            "byteOffset" : 1152
        },
        {
            "buffer" : 0,
            "byteLength" : 384,
            "byteOffset" : 1536
        },
        {
            "buffer" : 0,
            "byteLength" : 168,
            "byteOffset" : 1920
        },
        {
            "buffer" : 0,
            "byteLength" : 77467,
            "byteOffset" : 2088
        },
        {
            "buffer" : 0,
            "byteLength" : 288,
            "byteOffset" : 79556
        },
        {
            "buffer" : 0,
            "byteLength" : 288,
            "byteOffset" : 79844
        },
        {
            "buffer" : 0,
            "byteLength" : 192,
            "byteOffset" : 80132
        },
        {
            "buffer" : 0,
            "byteLength" : 72,
            "byteOffset" : 80324
        },
        {
            "buffer" : 0,
            "byteLength" : 233357,
            "byteOffset" : 80396
        },
        {
            "buffer" : 0,
            "byteLength" : 7644,
            "byteOffset" : 313756
        },
        {
            "buffer" : 0,
            "byteLength" : 7644,
            "byteOffset" : 321400
        },
        {
            "buffer" : 0,
            "byteLength" : 5096,
            "byteOffset" : 329044
        },
        {
            "buffer" : 0,
            "byteLength" : 6912,
            "byteOffset" : 334140
        },
        {
            "buffer" : 0,
            "byteLength" : 33604,
            "byteOffset" : 341052
        }
    ],
    "samplers" : [
        {
            "magFilter" : 9729,
            "minFilter" : 9987
        }
    ],
    "buffers" : [
        {
            "byteLength" : 374656,
            "uri" : "data:application/octet-stream;base64,"
        }
    ]
}
