{
    "asset" : {
        "generator" : "Khronos glTF Blender I/O v1.5.17",
        "version" : "2.0"
    },
    "scene" : 0,
    "scenes" : [
        {
            "name" : "Scene",
            "nodes" : [
                0,
                1,
                2,
                3
            ]
        }
    ],
    "nodes" : [
        {
            "mesh" : 0,
            "name" : "\ud050\ube0c",
            "scale" : [
                0.15000000596046448,
                3,
                1.5
            ]
        },
        {
            "mesh" : 1,
            "name" : "\ud050\ube0c.002",
            "rotation" : [
                0.5,
                0.5,
                -0.5,
                0.4999999701976776
            ],
            "scale" : [
                1.0352413654327393,
                0.07592780143022537,
                1.0250511169433594
            ],
            "translation" : [
                0.024996235966682434,
                -0.010252118110656738,
                -0.006727755069732666
            ]
        },
        {
            "name" : "\ubca0\uc9c0\uc5b4 \uc6d0\ud615",
            "scale" : [
                -0.02616730146110058,
                -0.02616730146110058,
                -0.02616730146110058
            ]
        },
        {
            "mesh" : 2,
            "name" : "\ubca0\uc9c0\uc5b4\ucee4\ube0c",
            "rotation" : [
                0.02319960482418537,
                -0.6937662363052368,
                0.013660277239978313,
                0.7196968793869019
            ]
        }
    ],
    "materials" : [
        {
            "doubleSided" : true,
            "name" : "\ub9e4\ud14c\ub9ac\uc5bc",
            "pbrMetallicRoughness" : {
                "baseColorTexture" : {
                    "index" : 0
                },
                "metallicFactor" : 0,
                "roughnessFactor" : 0.5
            }
        },
        {
            "doubleSided" : true,
            "name" : "\ub9e4\ud14c\ub9ac\uc5bc.001",
            "pbrMetallicRoughness" : {
                "baseColorTexture" : {
                    "index" : 1
                },
                "metallicFactor" : 0,
                "roughnessFactor" : 0.5
            }
        },
        {
            "doubleSided" : true,
            "name" : "\ub9e4\ud14c\ub9ac\uc5bc.002",
            "pbrMetallicRoughness" : {
                "baseColorTexture" : {
                    "index" : 2
                },
                "metallicFactor" : 0,
                "roughnessFactor" : 0.5
            }
        }
    ],
    "meshes" : [
        {
            "name" : "\ud050\ube0c",
            "primitives" : [
                {
                    "attributes" : {
                        "POSITION" : 0,
                        "NORMAL" : 1,
                        "TEXCOORD_0" : 2
                    },
                    "indices" : 3,
                    "material" : 0
                }
            ]
        },
        {
            "name" : "\ud050\ube0c.003",
            "primitives" : [
                {
                    "attributes" : {
                        "POSITION" : 4,
                        "NORMAL" : 5,
                        "TEXCOORD_0" : 6
                    },
                    "indices" : 7,
                    "material" : 1
                }
            ]
        },
        {
            "name" : "\ubca0\uc9c0\uc5b4\ucee4\ube0c.004",
            "primitives" : [
                {
                    "attributes" : {
                        "POSITION" : 8,
                        "NORMAL" : 9,
                        "TEXCOORD_0" : 10
                    },
                    "indices" : 11,
                    "material" : 2
                }
            ]
        }
    ],
    "textures" : [
        {
            "sampler" : 0,
            "source" : 0
        },
        {
            "sampler" : 0,
            "source" : 1
        },
        {
            "sampler" : 0,
            "source" : 2
        }
    ],
    "images" : [
        {
            "bufferView" : 4,
            "mimeType" : "image/jpeg",
            "name" : "11929904-\uac80\uc740-\ub098\ubb34-\ud751\ub2e8-\ud14d\uc2a4\ucc98"
        },
        {
            "bufferView" : 9,
            "mimeType" : "image/png",
            "name" : "123"
        },
        {
            "bufferView" : 14,
            "mimeType" : "image/jpeg",
            "name" : "13206168-\uac80\uc740-\uc0c9-\ud50c\ub77c\uc2a4\ud2f1-\uadfc\uc811-\ud14d\uc2a4\ucc98-\uc624\ub798-\uae01\ud78c"
        }
    ],
    "accessors" : [
        {
            "bufferView" : 0,
            "componentType" : 5126,
            "count" : 76,
            "max" : [
                1,
                1,
                1
            ],
            "min" : [
                -1,
                -1,
                -1
            ],
            "type" : "VEC3"
        },
        {
            "bufferView" : 1,
            "componentType" : 5126,
            "count" : 76,
            "type" : "VEC3"
        },
        {
            "bufferView" : 2,
            "componentType" : 5126,
            "count" : 76,
            "type" : "VEC2"
        },
        {
            "bufferView" : 3,
            "componentType" : 5123,
            "count" : 132,
            "type" : "SCALAR"
        },
        {
            "bufferView" : 5,
            "componentType" : 5126,
            "count" : 24,
            "max" : [
                1.2852948904037476,
                0.7217264175415039,
                2.7832303047180176
            ],
            "min" : [
                -1.2852948904037476,
                -0.7217264175415039,
                -2.7832303047180176
            ],
            "type" : "VEC3"
        },
        {
            "bufferView" : 6,
            "componentType" : 5126,
            "count" : 24,
            "type" : "VEC3"
        },
        {
            "bufferView" : 7,
            "componentType" : 5126,
            "count" : 24,
            "type" : "VEC2"
        },
        {
            "bufferView" : 8,
            "componentType" : 5123,
            "count" : 36,
            "type" : "SCALAR"
        },
        {
            "bufferView" : 10,
            "componentType" : 5126,
            "count" : 1225,
            "max" : [
                0.8910967111587524,
                4.633101940155029,
                -0.10424821078777313
            ],
            "min" : [
                -0.9758768081665039,
                2.8736705780029297,
                -0.27342841029167175
            ],
            "type" : "VEC3"
        },
        {
            "bufferView" : 11,
            "componentType" : 5126,
            "count" : 1225,
            "type" : "VEC3"
        },
        {
            "bufferView" : 12,
            "componentType" : 5126,
            "count" : 1225,
            "type" : "VEC2"
        },
        {
            "bufferView" : 13,
            "componentType" : 5123,
            "count" : 6912,
            "type" : "SCALAR"
        }
    ],
    "bufferViews" : [
        {
            "buffer" : 0,
            "byteLength" : 912,
            "byteOffset" : 0
        },
        {
            "buffer" : 0,
            "byteLength" : 912,
            "byteOffset" : 912
        },
        {
            "buffer" : 0,
            "byteLength" : 608,
            "byteOffset" : 1824
        },
        {
            "buffer" : 0,
            "byteLength" : 264,
            "byteOffset" : 2432
        },
        {
            "buffer" : 0,
            "byteLength" : 77467,
            "byteOffset" : 2696
        },
        {
            "buffer" : 0,
            "byteLength" : 288,
            "byteOffset" : 80164
        },
        {
            "buffer" : 0,
            "byteLength" : 288,
            "byteOffset" : 80452
        },
        {
            "buffer" : 0,
            "byteLength" : 192,
            "byteOffset" : 80740
        },
        {
            "buffer" : 0,
            "byteLength" : 72,
            "byteOffset" : 80932
        },
        {
            "buffer" : 0,
            "byteLength" : 192221,
            "byteOffset" : 81004
        },
        {
            "buffer" : 0,
            "byteLength" : 14700,
            "byteOffset" : 273228
        },
        {
            "buffer" : 0,
            "byteLength" : 14700,
            "byteOffset" : 287928
        },
        {
            "buffer" : 0,
            "byteLength" : 9800,
            "byteOffset" : 302628
        },
        {
            "buffer" : 0,
            "byteLength" : 13824,
            "byteOffset" : 312428
        },
        {
            "buffer" : 0,
            "byteLength" : 33604,
            "byteOffset" : 326252
        }
    ],
    "samplers" : [
        {
            "magFilter" : 9729,
            "minFilter" : 9987
        }
    ],
    "buffers" : [
        {
            "byteLength" : 359856,
            "uri" : "data:application/octet-stream;base64,"
        }
    ]
}
