{
    "asset" : {
        "generator" : "Khronos glTF Blender I/O v1.5.17",
        "version" : "2.0"
    },
    "scene" : 0,
    "scenes" : [
        {
            "name" : "Scene",
            "nodes" : [
                0,
                1,
                2,
                3
            ]
        }
    ],
    "nodes" : [
        {
            "mesh" : 0,
            "name" : "\uad6c\uccb4",
            "scale" : [
                0.30000001192092896,
                1.100000023841858,
                0.30000001192092896
            ],
            "translation" : [
                0.5016816258430481,
                0,
                3.003756046295166
            ]
        },
        {
            "mesh" : 1,
            "name" : "\uad6c\uccb4.001",
            "scale" : [
                0.30000001192092896,
                1.100000023841858,
                0.30000001192092896
            ],
            "translation" : [
                0.5561176538467407,
                0,
                -0.002636626362800598
            ]
        },
        {
            "mesh" : 2,
            "name" : "\uad6c\uccb4.002",
            "scale" : [
                0.30000001192092896,
                1.100000023841858,
                0.30000001192092896
            ],
            "translation" : [
                0.5016816258430481,
                0,
                -2.998885154724121
            ]
        },
        {
            "mesh" : 3,
            "name" : "\uad6c\uccb4.003",
            "rotation" : [
                0.7071068286895752,
                0,
                0,
                0.7071068286895752
            ],
            "scale" : [
                0.4000000059604645,
                6.899999618530273,
                0.4000000059604645
            ],
            "translation" : [
                -0.029487252235412598,
                0,
                -0.002636626362800598
            ]
        }
    ],
    "materials" : [
        {
            "doubleSided" : true,
            "name" : "\ub9e4\ud14c\ub9ac\uc5bc",
            "pbrMetallicRoughness" : {
                "baseColorTexture" : {
                    "index" : 0
                },
                "metallicFactor" : 0,
                "roughnessFactor" : 0.5
            }
        }
    ],
    "meshes" : [
        {
            "name" : "\uad6c\uccb4.003",
            "primitives" : [
                {
                    "attributes" : {
                        "POSITION" : 0,
                        "NORMAL" : 1,
                        "TEXCOORD_0" : 2
                    },
                    "indices" : 3,
                    "material" : 0
                }
            ]
        },
        {
            "name" : "\uad6c\uccb4.004",
            "primitives" : [
                {
                    "attributes" : {
                        "POSITION" : 4,
                        "NORMAL" : 5,
                        "TEXCOORD_0" : 6
                    },
                    "indices" : 3,
                    "material" : 0
                }
            ]
        },
        {
            "name" : "\uad6c\uccb4.005",
            "primitives" : [
                {
                    "attributes" : {
                        "POSITION" : 7,
                        "NORMAL" : 8,
                        "TEXCOORD_0" : 9
                    },
                    "indices" : 3,
                    "material" : 0
                }
            ]
        },
        {
            "name" : "\uad6c\uccb4.001",
            "primitives" : [
                {
                    "attributes" : {
                        "POSITION" : 10,
                        "NORMAL" : 11,
                        "TEXCOORD_0" : 12
                    },
                    "indices" : 13,
                    "material" : 0
                }
            ]
        }
    ],
    "textures" : [
        {
            "sampler" : 0,
            "source" : 0
        }
    ],
    "images" : [
        {
            "bufferView" : 4,
            "mimeType" : "image/jpeg",
            "name" : "wood-texture-1631810"
        }
    ],
    "accessors" : [
        {
            "bufferView" : 0,
            "componentType" : 5126,
            "count" : 448,
            "max" : [
                0.9999997019767761,
                1,
                0.9999994039535522
            ],
            "min" : [
                -0.9999990463256836,
                -1,
                -0.9999987483024597
            ],
            "type" : "VEC3"
        },
        {
            "bufferView" : 1,
            "componentType" : 5126,
            "count" : 448,
            "type" : "VEC3"
        },
        {
            "bufferView" : 2,
            "componentType" : 5126,
            "count" : 448,
            "type" : "VEC2"
        },
        {
            "bufferView" : 3,
            "componentType" : 5123,
            "count" : 576,
            "type" : "SCALAR"
        },
        {
            "bufferView" : 5,
            "componentType" : 5126,
            "count" : 448,
            "max" : [
                0.9999997019767761,
                1,
                0.9999994039535522
            ],
            "min" : [
                -0.9999990463256836,
                -1,
                -0.9999987483024597
            ],
            "type" : "VEC3"
        },
        {
            "bufferView" : 6,
            "componentType" : 5126,
            "count" : 448,
            "type" : "VEC3"
        },
        {
            "bufferView" : 7,
            "componentType" : 5126,
            "count" : 448,
            "type" : "VEC2"
        },
        {
            "bufferView" : 8,
            "componentType" : 5126,
            "count" : 448,
            "max" : [
                0.9999997019767761,
                1,
                0.9999994039535522
            ],
            "min" : [
                -0.9999990463256836,
                -1,
                -0.9999987483024597
            ],
            "type" : "VEC3"
        },
        {
            "bufferView" : 9,
            "componentType" : 5126,
            "count" : 448,
            "type" : "VEC3"
        },
        {
            "bufferView" : 10,
            "componentType" : 5126,
            "count" : 448,
            "type" : "VEC2"
        },
        {
            "bufferView" : 11,
            "componentType" : 5126,
            "count" : 448,
            "max" : [
                0.9999997019767761,
                0.75541090965271,
                0.9999994039535522
            ],
            "min" : [
                -0.9999990463256836,
                -0.7516425848007202,
                -0.9999987483024597
            ],
            "type" : "VEC3"
        },
        {
            "bufferView" : 12,
            "componentType" : 5126,
            "count" : 448,
            "type" : "VEC3"
        },
        {
            "bufferView" : 13,
            "componentType" : 5126,
            "count" : 448,
            "type" : "VEC2"
        },
        {
            "bufferView" : 14,
            "componentType" : 5123,
            "count" : 576,
            "type" : "SCALAR"
        }
    ],
    "bufferViews" : [
        {
            "buffer" : 0,
            "byteLength" : 5376,
            "byteOffset" : 0
        },
        {
            "buffer" : 0,
            "byteLength" : 5376,
            "byteOffset" : 5376
        },
        {
            "buffer" : 0,
            "byteLength" : 3584,
            "byteOffset" : 10752
        },
        {
            "buffer" : 0,
            "byteLength" : 1152,
            "byteOffset" : 14336
        },
        {
            "buffer" : 0,
            "byteLength" : 407879,
            "byteOffset" : 15488
        },
        {
            "buffer" : 0,
            "byteLength" : 5376,
            "byteOffset" : 423368
        },
        {
            "buffer" : 0,
            "byteLength" : 5376,
            "byteOffset" : 428744
        },
        {
            "buffer" : 0,
            "byteLength" : 3584,
            "byteOffset" : 434120
        },
        {
            "buffer" : 0,
            "byteLength" : 5376,
            "byteOffset" : 437704
        },
        {
            "buffer" : 0,
            "byteLength" : 5376,
            "byteOffset" : 443080
        },
        {
            "buffer" : 0,
            "byteLength" : 3584,
            "byteOffset" : 448456
        },
        {
            "buffer" : 0,
            "byteLength" : 5376,
            "byteOffset" : 452040
        },
        {
            "buffer" : 0,
            "byteLength" : 5376,
            "byteOffset" : 457416
        },
        {
            "buffer" : 0,
            "byteLength" : 3584,
            "byteOffset" : 462792
        },
        {
            "buffer" : 0,
            "byteLength" : 1152,
            "byteOffset" : 466376
        }
    ],
    "samplers" : [
        {
            "magFilter" : 9729,
            "minFilter" : 9987
        }
    ],
    "buffers" : [
        {
            "byteLength" : 467528,
            "uri" : "data:application/octet-stream;base64,"
        }
    ]
}
