{
    "asset" : {
        "generator" : "Khronos glTF Blender I/O v1.5.17",
        "version" : "2.0"
    },
    "scene" : 0,
    "scenes" : [
        {
            "name" : "Scene",
            "nodes" : [
                0,
                1,
                2,
                3
            ]
        }
    ],
    "nodes" : [
        {
            "name" : "Light",
            "rotation" : [
                0.16907575726509094,
                0.7558803558349609,
                -0.27217137813568115,
                0.570947527885437
            ],
            "translation" : [
                4.076245307922363,
                5.903861999511719,
                -1.0054539442062378
            ]
        },
        {
            "mesh" : 0,
            "name" : "\uc2e4\ub9b0\ub354",
            "scale" : [
                1,
                0.7265068888664246,
                1
            ],
            "translation" : [
                2.620265007019043,
                0.2520183324813843,
                -3.8900058269500732
            ]
        },
        {
            "mesh" : 1,
            "name" : "\uad6c\uccb4",
            "scale" : [
                1.5126354694366455,
                1.5126354694366455,
                1.5126354694366455
            ],
            "translation" : [
                2.588304042816162,
                0.7216536998748779,
                -3.955409526824951
            ]
        },
        {
            "mesh" : 2,
            "name" : "\uc2e4\ub9b0\ub354.001",
            "scale" : [
                1.1708049774169922,
                1.1708049774169922,
                1.1708049774169922
            ],
            "translation" : [
                2.587857723236084,
                0.5467936992645264,
                -3.9468164443969727
            ]
        }
    ],
    "materials" : [
        {
            "doubleSided" : true,
            "name" : "\ub9e4\ud14c\ub9ac\uc5bc.001",
            "pbrMetallicRoughness" : {
                "baseColorTexture" : {
                    "index" : 0
                },
                "metallicFactor" : 0,
                "roughnessFactor" : 0.5
            }
        },
        {
            "doubleSided" : true,
            "name" : "\ub9e4\ud14c\ub9ac\uc5bc",
            "pbrMetallicRoughness" : {
                "baseColorFactor" : [
                    0.34238380193710327,
                    0,
                    0.00044926637201569974,
                    1
                ],
                "metallicFactor" : 0,
                "roughnessFactor" : 0.5
            }
        }
    ],
    "meshes" : [
        {
            "name" : "\uc2e4\ub9b0\ub354",
            "primitives" : [
                {
                    "attributes" : {
                        "POSITION" : 0,
                        "NORMAL" : 1,
                        "TEXCOORD_0" : 2
                    },
                    "indices" : 3,
                    "material" : 0
                }
            ]
        },
        {
            "name" : "\uad6c\uccb4",
            "primitives" : [
                {
                    "attributes" : {
                        "POSITION" : 4,
                        "NORMAL" : 5,
                        "TEXCOORD_0" : 6
                    },
                    "indices" : 7,
                    "material" : 0
                }
            ]
        },
        {
            "name" : "\uc2e4\ub9b0\ub354.002",
            "primitives" : [
                {
                    "attributes" : {
                        "POSITION" : 8,
                        "NORMAL" : 9,
                        "TEXCOORD_0" : 10
                    },
                    "indices" : 3,
                    "material" : 1
                }
            ]
        }
    ],
    "textures" : [
        {
            "sampler" : 0,
            "source" : 0
        }
    ],
    "images" : [
        {
            "bufferView" : 4,
            "mimeType" : "image/jpeg",
            "name" : "\ub2e4\uc6b4\ub85c\ub4dc (1)"
        }
    ],
    "accessors" : [
        {
            "bufferView" : 0,
            "componentType" : 5126,
            "count" : 192,
            "max" : [
                4.113112449645996,
                0.2049856185913086,
                4.113112449645996
            ],
            "min" : [
                -4.113112449645996,
                -0.2049856185913086,
                -4.113112449645996
            ],
            "type" : "VEC3"
        },
        {
            "bufferView" : 1,
            "componentType" : 5126,
            "count" : 192,
            "type" : "VEC3"
        },
        {
            "bufferView" : 2,
            "componentType" : 5126,
            "count" : 192,
            "type" : "VEC2"
        },
        {
            "bufferView" : 3,
            "componentType" : 5123,
            "count" : 372,
            "type" : "SCALAR"
        },
        {
            "bufferView" : 5,
            "componentType" : 5126,
            "count" : 992,
            "max" : [
                1.4976938962936401,
                1.4976935386657715,
                1.4976940155029297
            ],
            "min" : [
                -1.4976933002471924,
                1.1307271563509858e-07,
                -1.4976935386657715
            ],
            "type" : "VEC3"
        },
        {
            "bufferView" : 6,
            "componentType" : 5126,
            "count" : 992,
            "type" : "VEC3"
        },
        {
            "bufferView" : 7,
            "componentType" : 5126,
            "count" : 992,
            "type" : "VEC2"
        },
        {
            "bufferView" : 8,
            "componentType" : 5123,
            "count" : 1440,
            "type" : "SCALAR"
        },
        {
            "bufferView" : 9,
            "componentType" : 5126,
            "count" : 192,
            "max" : [
                2.076414108276367,
                0.19404840469360352,
                2.0764143466949463
            ],
            "min" : [
                -2.076414108276367,
                -0.19404840469360352,
                -2.0764143466949463
            ],
            "type" : "VEC3"
        },
        {
            "bufferView" : 10,
            "componentType" : 5126,
            "count" : 192,
            "type" : "VEC3"
        },
        {
            "bufferView" : 11,
            "componentType" : 5126,
            "count" : 192,
            "type" : "VEC2"
        }
    ],
    "bufferViews" : [
        {
            "buffer" : 0,
            "byteLength" : 2304,
            "byteOffset" : 0
        },
        {
            "buffer" : 0,
            "byteLength" : 2304,
            "byteOffset" : 2304
        },
        {
            "buffer" : 0,
            "byteLength" : 1536,
            "byteOffset" : 4608
        },
        {
            "buffer" : 0,
            "byteLength" : 744,
            "byteOffset" : 6144
        },
        {
            "buffer" : 0,
            "byteLength" : 295623,
            "byteOffset" : 6888
        },
        {
            "buffer" : 0,
            "byteLength" : 11904,
            "byteOffset" : 302512
        },
        {
            "buffer" : 0,
            "byteLength" : 11904,
            "byteOffset" : 314416
        },
        {
            "buffer" : 0,
            "byteLength" : 7936,
            "byteOffset" : 326320
        },
        {
            "buffer" : 0,
            "byteLength" : 2880,
            "byteOffset" : 334256
        },
        {
            "buffer" : 0,
            "byteLength" : 2304,
            "byteOffset" : 337136
        },
        {
            "buffer" : 0,
            "byteLength" : 2304,
            "byteOffset" : 339440
        },
        {
            "buffer" : 0,
            "byteLength" : 1536,
            "byteOffset" : 341744
        }
    ],
    "samplers" : [
        {
            "magFilter" : 9729,
            "minFilter" : 9987
        }
    ],
    "buffers" : [
        {
            "byteLength" : 343280,
            "uri" : "data:application/octet-stream;base64,"
        }
    ]
}
